<?xml version="1.0" standalone="no"?>
<!DOCTYPE svg PUBLIC "-//W3C//DTD SVG 20010904//EN"
 "http://www.w3.org/TR/2001/REC-SVG-20010904/DTD/svg10.dtd">
<svg version="1.0" xmlns="http://www.w3.org/2000/svg"
 width="500.000000pt" height="500.000000pt" viewBox="0 0 500.000000 500.000000"
 preserveAspectRatio="xMidYMid meet">

<g transform="translate(0.000000,500.000000) scale(0.100000,-0.100000)"
fill="#000000" stroke="none">
<path d="M760 2500 l0 -480 1740 0 1740 0 0 480 0 480 -1740 0 -1740 0 0 -480z
m3450 0 l0 -450 -1715 0 -1715 0 0 450 0 450 1715 0 1715 0 0 -450z"/>
<path d="M850 2500 l0 -390 820 0 820 0 2 380 c2 209 2 385 0 390 -3 7 -288
10 -823 10 l-819 0 0 -390z m452 140 c48 -14 114 -90 77 -90 -6 0 -27 14 -46
30 -60 53 -140 36 -163 -35 -34 -104 85 -182 162 -105 45 45 76 40 42 -8 -23
-33 -67 -52 -119 -52 -134 0 -173 195 -51 251 48 22 50 22 98 9z m593 -4 c23
-10 37 -24 41 -41 9 -38 -4 -43 -29 -12 -26 33 -79 40 -105 13 -25 -25 -5 -48
59 -68 85 -28 112 -77 67 -125 -17 -18 -32 -23 -72 -23 -54 1 -75 11 -94 47
-16 29 -15 33 8 33 11 0 20 -7 20 -15 0 -19 31 -35 67 -35 39 0 55 13 51 41
-2 19 -15 28 -59 44 -73 26 -89 40 -89 80 0 43 30 69 88 74 7 0 28 -5 47 -13z
m-275 -73 c18 -43 41 -98 51 -122 23 -53 24 -61 3 -61 -8 0 -20 14 -25 30 -11
29 -13 30 -76 30 -63 0 -65 -1 -76 -30 -7 -19 -18 -30 -30 -30 -10 0 -17 4
-15 8 89 220 104 252 120 252 11 0 26 -25 48 -77z m600 62 c0 -11 -12 -15 -45
-15 l-45 0 0 -115 c0 -96 -3 -115 -15 -115 -12 0 -15 19 -15 115 l0 115 -45 0
c-33 0 -45 4 -45 15 0 12 18 15 105 15 87 0 105 -3 105 -15z"/>
<path d="M1562 2570 c-5 -14 -17 -42 -25 -62 l-16 -38 50 0 c56 0 56 -1 18 84
-18 40 -18 40 -27 16z"/>
<path d="M2820 2520 c0 -66 0 -123 0 -127 0 -5 15 -9 35 -11 l35 -3 0 68 0 68
25 -38 c18 -26 33 -37 50 -37 17 0 32 11 50 37 l25 38 0 -68 0 -67 38 0 37 0
-2 127 -2 128 -29 3 c-26 3 -35 -4 -72 -57 -24 -34 -44 -61 -45 -61 -1 0 -21
27 -44 60 -35 50 -47 60 -72 60 l-29 0 0 -120z"/>
<path d="M3198 2517 c-27 -68 -48 -126 -48 -130 0 -4 17 -7 39 -7 30 0 40 4
44 20 4 16 14 20 50 20 37 0 47 -4 52 -20 5 -16 15 -20 46 -20 47 0 48 -14
-14 145 l-43 110 -39 3 -40 3 -47 -124z m111 -39 c1 -5 -10 -8 -24 -8 -28 0
-30 4 -13 51 l11 33 13 -34 c7 -19 13 -38 13 -42z"/>
<path d="M3450 2510 l0 -130 40 0 c39 0 40 1 40 35 0 25 5 35 15 35 9 0 23
-16 32 -35 15 -32 20 -35 61 -35 l44 0 -26 44 c-25 43 -25 44 -6 61 30 27 27
99 -5 130 -22 23 -32 25 -110 25 l-85 0 0 -130z m144 48 c13 -21 0 -36 -34
-40 -22 -3 -25 1 -28 30 -3 31 -1 33 24 30 15 -2 32 -11 38 -20z"/>
<path d="M3710 2605 c0 -34 1 -35 40 -35 l40 0 0 -95 0 -95 35 0 35 0 0 95 0
95 40 0 c39 0 40 1 40 35 l0 35 -115 0 -115 0 0 -35z"/>
</g>
</svg>
